<?xml version="1.0" standalone="no"?><!DOCTYPE svg PUBLIC "-//W3C//DTD SVG 1.1//EN" "http://www.w3.org/Graphics/SVG/1.1/DTD/svg11.dtd"><svg class="icon" width="200px" height="190.69px" viewBox="0 0 1074 1024" version="1.1" xmlns="http://www.w3.org/2000/svg"><path fill="currentColor" d="M707.882006 236.187866c23.134657-11.683863 47.434661-17.530862 72.900011-17.530862s49.775487 5.846998 72.910144 17.530862a190.883723 190.883723 0 0 1 60.050802 47.363727c16.892455 19.902088 30.299004 43.472484 40.219647 70.731453 9.920644 27.25897 14.875899 55.875821 14.875899 85.870822 0 42.388205-9.677441 81.614774-29.02219 117.659442a147.137636 147.137636 0 0 1 32.872899 16.436449c10.407049 6.921144 21.310637 17.449794 32.690497 31.585951 11.389993 14.126024 21.118102 30.785409 29.204592 49.957889 8.076356 19.182613 14.815098 43.979156 20.195958 74.409895 5.390993 30.420605 8.08649 64.529784 8.08649 102.307271 0 44.414894-12.251336 82.405183-36.733742 113.991134-24.482406 31.575818-53.991 47.363727-88.515651 41.770065H623.956806c-34.524651 5.593662-64.033246-10.194247-88.515651-41.770065-24.492539-31.585951-36.733742-69.57624-36.733742-114.001268 0-37.767353 2.695497-71.876533 8.08649-102.297137 5.38086-30.430738 12.119601-55.227281 20.195958-74.409895 8.08649-19.17248 17.814598-35.831865 29.204592-49.957889 11.37986-14.136157 22.273314-24.664808 32.680363-31.585951a147.137636 147.137636 0 0 1 32.872899-16.436449c-19.344748-36.044668-29.012056-75.271237-29.012056-117.659442 0-29.995 4.965389-58.621985 14.875899-85.870822 9.920644-27.25897 23.317059-50.829365 40.219647-70.731453a190.883723 190.883723 0 0 1 60.050801-47.363727zM0 5.327698h466.138518v374.937504H0V5.327698z m352.603388 770.141899l-100.858188-122.087758 39.804176-48.833076L460.362453 811.615599 291.539243 1018.672302l-39.804177-48.833077L352.603388 846.403719H40.533784V440.153868l60.800676 56.433161V775.469597h251.268928z m484.784059-488.026761c-17.297792-8.937699-36.166269-13.406549-56.60543-13.406549-38.9327 0-72.170403 16.213514-99.713109 48.660808a170.393895 170.393895 0 0 0-37.291081 75.970445s174.477674-71.988001 193.60962-111.224704zM780.782017 661.640598c-46.765853 0-87.897511-18.32127-123.405106-54.943545-35.994 2.026689-63.597507 22.931988-82.820654 62.726031-19.223147 39.794043-28.829654 94.159981-28.829654 163.087681 0 29.417394 7.650752 54.436872 22.952255 75.048301 15.301504 20.621563 33.724108 30.937411 55.277948 30.045668h313.660556c21.543706 0.891743 39.976445-9.424105 55.277948-30.045668 15.301504-20.611429 22.952255-45.630908 22.952255-75.048301 0-68.9277-9.606507-123.293638-28.829654-163.087681-19.223147-39.794043-46.826654-60.699342-82.820654-62.726031-35.507595 36.622274-76.639252 54.943544-123.41524 54.943545zM681.068908 557.600507c27.542706 32.437161 60.780409 48.660808 99.713109 48.660808 38.9327 0 72.180536-16.213514 99.713109-48.660808 27.562973-32.447294 41.324193-71.592796 41.324193-117.446639 0-9.018767-0.526939-17.753797-1.590951-26.245626-12.636407-10.032112-71.66373-57.405972-91.251681-81.949178-34.291581 23.67173-153.592642 68.167691-187.458619 80.560896-1.17548 8.917433-1.773353 18.138868-1.773353 27.633908 0 45.853843 13.781487 84.999345 41.324193 117.446639z m199.426218-234.893279c-11.856132-13.974022-24.756009-24.928277-38.730031-32.883032 1.408549 10.184113 4.661385 25.49575 13.17348 41.222858 17.865265 33.004634 61.246548 67.620485 61.246548 67.620486l2.989367 7.964888c-5.198458-31.717686-18.088201-59.685997-38.66923-83.935333z" /></svg>