<?xml version="1.0" standalone="no"?><!DOCTYPE svg PUBLIC "-//W3C//DTD SVG 1.1//EN" "http://www.w3.org/Graphics/SVG/1.1/DTD/svg11.dtd"><svg class="icon" width="200px" height="200.00px" viewBox="0 0 1024 1024" version="1.1" xmlns="http://www.w3.org/2000/svg"><path fill="currentColor" d="M853.333333 512a42.666667 42.666667 0 0 0-42.666666-42.666667h-323.84l98.133333-97.706666a42.666667 42.666667 0 1 0-60.586667-60.586667l-170.666666 170.666667a42.666667 42.666667 0 0 0-8.96 14.08 42.666667 42.666667 0 0 0 0 32.426666 42.666667 42.666667 0 0 0 8.96 14.08l170.666666 170.666667a42.666667 42.666667 0 0 0 60.586667 0 42.666667 42.666667 0 0 0 0-60.586667L486.826667 554.666667H810.666667a42.666667 42.666667 0 0 0 42.666666-42.666667zM725.333333 85.333333H298.666667a128 128 0 0 0-128 128v597.333334a128 128 0 0 0 128 128h426.666666a128 128 0 0 0 128-128v-128a42.666667 42.666667 0 0 0-85.333333 0v128a42.666667 42.666667 0 0 1-42.666667 42.666666H298.666667a42.666667 42.666667 0 0 1-42.666667-42.666666V213.333333a42.666667 42.666667 0 0 1 42.666667-42.666666h426.666666a42.666667 42.666667 0 0 1 42.666667 42.666666v128a42.666667 42.666667 0 0 0 85.333333 0V213.333333a128 128 0 0 0-128-128z" /></svg>