<?xml version="1.0" standalone="no"?><!DOCTYPE svg PUBLIC "-//W3C//DTD SVG 1.1//EN" "http://www.w3.org/Graphics/SVG/1.1/DTD/svg11.dtd"><svg class="icon" width="200px" height="200.00px" viewBox="0 0 1024 1024" version="1.1" xmlns="http://www.w3.org/2000/svg"><path fill="currentColor" d="M923.917 399.85h-38.189L586.289 211.725c-1.39-40.519-34.764-73.06-75.617-73.06-39.287 0-71.668 30.092-75.329 68.436L128.544 399.85h-28.461c-18.929 0-34.416 15.487-34.416 34.416v416.652c0 18.929 15.487 34.417 34.416 34.417h823.834c18.929 0 34.416-15.487 34.416-34.417V434.266c0-18.929-15.487-34.416-34.416-34.416zM750.925 574.658c0 19.007-15.409 34.417-34.416 34.417H304.493c-19.008 0-34.416-15.409-34.416-34.417 0-19.008 15.409-34.416 34.416-34.416h412.016c19.007 0 34.416 15.408 34.416 34.416zM457.891 268.517c13.645 13.299 32.267 21.515 52.781 21.515 19.115 0 36.584-7.138 49.92-18.869L765.423 399.85H248.849l209.042-131.333z m265.53 468.49H304.493c-19.007 0-34.416-15.409-34.416-34.416 0-19.007 15.409-34.417 34.416-34.417h418.929c19.007 0 34.416 15.409 34.416 34.417 0 19.007-15.409 34.416-34.417 34.416z" /></svg>