<?xml version="1.0" standalone="no"?><!DOCTYPE svg PUBLIC "-//W3C//DTD SVG 1.1//EN" "http://www.w3.org/Graphics/SVG/1.1/DTD/svg11.dtd"><svg class="icon" width="200px" height="200.00px" viewBox="0 0 1024 1024" version="1.1" xmlns="http://www.w3.org/2000/svg"><path fill="currentColor" d="M448 1011.2c-34.133333 0-72.533333-29.866667-72.533333-102.4 0-46.933333 21.333333-145.066667 72.533333-145.066667s72.533333 93.866667 72.533333 145.066667c0 68.266667-38.4 102.4-72.533333 102.4z m0-204.8c-8.533333 4.266667-29.866667 51.2-29.866667 102.4 0 34.133333 12.8 59.733333 29.866667 59.733333s29.866667-25.6 29.866667-59.733333c0-46.933333-21.333333-98.133333-29.866667-102.4zM448 256C396.8 256 375.466667 162.133333 375.466667 115.2c0-68.266667 38.4-102.4 72.533333-102.4s72.533333 29.866667 72.533333 102.4c0 46.933333-21.333333 140.8-72.533333 140.8z m0-200.533333c-17.066667 0-29.866667 25.6-29.866667 59.733333 0 46.933333 17.066667 93.866667 29.866667 98.133333 12.8-8.533333 29.866667-55.466667 29.866667-98.133333 0-34.133333-12.8-59.733333-29.866667-59.733333zM448 908.8c-12.8 0-21.333333-8.533333-21.333333-21.333333V136.533333c0-12.8 8.533333-21.333333 21.333333-21.333333s21.333333 8.533333 21.333333 21.333333v750.933334c0 12.8-8.533333 21.333333-21.333333 21.333333zM234.666667 1011.2c-34.133333 0-72.533333-29.866667-72.533334-102.4 0-46.933333 21.333333-145.066667 72.533334-145.066667s72.533333 93.866667 72.533333 145.066667c0 68.266667-38.4 102.4-72.533333 102.4z m0-204.8c-8.533333 4.266667-29.866667 51.2-29.866667 102.4 0 34.133333 12.8 59.733333 29.866667 59.733333s29.866667-25.6 29.866666-59.733333c0-46.933333-21.333333-98.133333-29.866666-102.4zM234.666667 256C183.466667 256 162.133333 162.133333 162.133333 115.2c0-68.266667 38.4-102.4 72.533334-102.4 34.133333 0 72.533333 29.866667 72.533333 102.4C307.2 162.133333 285.866667 256 234.666667 256z m0-200.533333c-17.066667 0-29.866667 25.6-29.866667 59.733333 0 46.933333 17.066667 93.866667 29.866667 98.133333 12.8-8.533333 29.866667-55.466667 29.866666-98.133333 0-34.133333-12.8-59.733333-29.866666-59.733333zM234.666667 908.8c-12.8 0-21.333333-8.533333-21.333334-21.333333V136.533333c0-12.8 8.533333-21.333333 21.333334-21.333333s21.333333 8.533333 21.333333 21.333333v750.933334c0 12.8-8.533333 21.333333-21.333333 21.333333zM725.333333 947.2c-4.266667 0-8.533333 0-12.8-4.266667-8.533333-8.533333-12.8-21.333333-4.266666-29.866666 290.133333-426.666667 4.266667-797.866667 0-802.133334-8.533333-8.533333-4.266667-21.333333 4.266666-29.866666 8.533333-8.533333 21.333333-4.266667 29.866667 4.266666 4.266667 4.266667 311.466667 401.066667 0 853.333334-4.266667 4.266667-8.533333 8.533333-17.066667 8.533333zM725.333333 947.2c-8.533333 0-12.8-4.266667-17.066666-8.533333-307.2-452.266667-4.266667-849.066667 0-853.333334 8.533333-8.533333 21.333333-12.8 29.866666-4.266666 8.533333 8.533333 12.8 21.333333 4.266667 29.866666-12.8 17.066667-290.133333 375.466667 0 802.133334 8.533333 8.533333 4.266667 21.333333-4.266667 29.866666-4.266667 4.266667-8.533333 4.266667-12.8 4.266667zM725.333333 618.666667c-46.933333 0-85.333333-38.4-85.333333-85.333334V512c0-46.933333 38.4-85.333333 85.333333-85.333333s85.333333 38.4 85.333334 85.333333v25.6c0 46.933333-38.4 81.066667-85.333334 81.066667z m0-149.333334c-21.333333 0-42.666667 17.066667-42.666666 42.666667v25.6c0 21.333333 17.066667 42.666667 42.666666 42.666667s42.666667-17.066667 42.666667-42.666667V512c0-21.333333-21.333333-42.666667-42.666667-42.666667zM793.6 418.133333c-8.533333 0-12.8-4.266667-17.066667-8.533333-25.6-34.133333-81.066667-34.133333-102.4 0-8.533333 8.533333-21.333333 12.8-29.866666 4.266667-8.533333-4.266667-12.8-17.066667-4.266667-29.866667 21.333333-25.6 51.2-42.666667 85.333333-42.666667s68.266667 17.066667 85.333334 42.666667c8.533333 8.533333 4.266667 21.333333-4.266667 29.866667-4.266667 4.266667-8.533333 4.266667-12.8 4.266666z" /></svg>