<?xml version="1.0" standalone="no"?><!DOCTYPE svg PUBLIC "-//W3C//DTD SVG 1.1//EN" "http://www.w3.org/Graphics/SVG/1.1/DTD/svg11.dtd"><svg class="icon" width="200px" height="200.00px" viewBox="0 0 1024 1024" version="1.1" xmlns="http://www.w3.org/2000/svg"><path fill="currentColor" d="M548.571429 950.857143h-438.857143a36.571429 36.571429 0 0 1-36.571429-36.571429v-804.571428a36.571429 36.571429 0 0 1 36.571429-36.571429h658.285714a36.571429 36.571429 0 0 1 36.571429 36.571429v365.714285a36.571429 36.571429 0 0 0 73.142857 0v-365.714285A109.714286 109.714286 0 0 0 768 0h-658.285714A109.714286 109.714286 0 0 0 0 109.714286v804.571428A109.714286 109.714286 0 0 0 109.714286 1024h438.857143a36.571429 36.571429 0 0 0 0-73.142857zM694.857143 219.428571h-512a36.571429 36.571429 0 0 0 0 73.142858h512a36.571429 36.571429 0 0 0 0-73.142858zM731.428571 475.428571a36.571429 36.571429 0 0 0-36.571428-36.571428h-512a36.571429 36.571429 0 0 0 0 73.142857h512a36.571429 36.571429 0 0 0 36.571428-36.571429zM182.857143 658.285714a36.571429 36.571429 0 0 0 0 73.142857h292.571428a36.571429 36.571429 0 0 0 0-73.142857zM950.857143 694.857143a109.714286 109.714286 0 1 0-109.714286 109.714286A109.714286 109.714286 0 0 0 950.857143 694.857143z m-109.714286 36.571428a36.571429 36.571429 0 1 1 36.571429-36.571428 36.571429 36.571429 0 0 1-36.571429 36.571428zM841.142857 804.571429A182.857143 182.857143 0 0 0 658.285714 987.428571a36.571429 36.571429 0 0 0 73.142857 0 109.714286 109.714286 0 0 1 219.428572 0 36.571429 36.571429 0 0 0 73.142857 0 182.857143 182.857143 0 0 0-182.857143-182.857142z" /></svg>