<?xml version="1.0" standalone="no"?><!DOCTYPE svg PUBLIC "-//W3C//DTD SVG 1.1//EN" "http://www.w3.org/Graphics/SVG/1.1/DTD/svg11.dtd"><svg class="icon" width="200px" height="200.00px" viewBox="0 0 1024 1024" version="1.1" xmlns="http://www.w3.org/2000/svg"><path fill="currentColor" d="M901.12 720.213333a128 128 0 0 0-145.066667-24.746666l-49.066666-48.64a1024 1024 0 0 0 222.293333-378.026667 136.106667 136.106667 0 0 0-174.08-174.08 1024 1024 0 0 0-378.026667 222.293333L328.533333 267.946667a128 128 0 1 0-205.653333 35.84A128 128 0 0 0 213.333333 341.333333a128 128 0 0 0 54.613334-12.8l49.066666 48.64a1024 1024 0 0 0-222.293333 378.026667A138.24 138.24 0 0 0 128 896a135.253333 135.253333 0 0 0 94.72 42.666667 159.573333 159.573333 0 0 0 46.08-7.253334 1024 1024 0 0 0 378.026667-222.293333l48.64 49.066667a128 128 0 1 0 205.653333-35.84zM243.626667 243.2a42.666667 42.666667 0 0 1-60.586667-60.16A42.666667 42.666667 0 0 1 243.626667 243.2z m537.6-66.986667a68.266667 68.266667 0 0 1 20.053333-3.413333 49.493333 49.493333 0 0 1 35.413333 14.506667 52.48 52.48 0 0 1 11.093334 55.466666 942.506667 942.506667 0 0 1-90.88 197.973334l-173.653334-173.653334a942.506667 942.506667 0 0 1 197.973334-90.88zM242.773333 847.786667a51.2 51.2 0 0 1-66.56-66.56 942.506667 942.506667 0 0 1 90.88-197.973334l173.653334 173.653334a942.506667 942.506667 0 0 1-197.973334 90.88zM512 707.84L316.16 512a908.373333 908.373333 0 0 1 61.013333-74.24l209.493334 209.493333A908.373333 908.373333 0 0 1 512 707.84z m134.4-121.173333l-209.066667-209.493334A908.373333 908.373333 0 0 1 512 316.16l196.266667 196.266667a908.373333 908.373333 0 0 1-61.44 74.24z m194.133333 256a42.666667 42.666667 0 1 1-60.586666-60.16 42.666667 42.666667 0 0 1 60.16 0 42.666667 42.666667 0 0 1 0.853333 58.453333z" /></svg>