<?xml version="1.0" standalone="no"?><!DOCTYPE svg PUBLIC "-//W3C//DTD SVG 1.1//EN" "http://www.w3.org/Graphics/SVG/1.1/DTD/svg11.dtd"><svg class="icon" width="200px" height="200.00px" viewBox="0 0 1024 1024" version="1.1" xmlns="http://www.w3.org/2000/svg"><path fill="currentColor" d="M509.58788417 993.02244125c-23.18742856 0-46.37485884-5.29109044-67.53922228-16.02889434l-381.26980896-192.9692105C25.60865852 766.128 3.8218115 730.64656467 3.8218115 691.11900085V106.92028065c0-19.60816232 9.02597974-37.34887912 24.74363314-48.86478446 15.71765345-11.51590359 35.48143534-14.78393068 54.15587491-8.87035839l414.72817917 131.03231781c8.24787831 2.64554521 16.96261537 2.64554521 25.21049364 0l418.77430943-131.18793742c18.67443957-5.75795268 38.28260188-2.48992563 54.00025357 9.025978 15.71765345 11.51590359 24.74363315 29.41224173 24.74363314 48.86478446v579.99697041c0 39.2163229-21.63122568 74.69775824-56.64580052 92.59409635L577.74959003 976.682306c-21.31998477 10.89342351-44.66303467 16.34013525-68.16170586 16.34013525zM64.35812092 92.91445142c-3.73488756 0-6.53605411 1.55620288-8.09225873 2.8011648-2.17868469 1.55620288-5.75795268 5.13547083-5.75795093 11.20466443v584.1987202c0 21.786847 11.98276587 41.3950076 31.43530684 51.19908703l381.26980896 192.96921052c29.25662216 14.78393068 64.11557564 14.78393068 93.21657647-0.15562133l385.62717837-197.32657818c19.29692138-9.80408114 31.27968553-29.41224173 31.27968725-51.04346743V106.76465931c0-6.06919358-3.57926798-9.64845981-5.7579527-11.20466268s-6.53605411-3.89050888-12.44962635-2.0230651l-418.77430767 131.18793915c-17.4294776 5.44671176-35.79267627 5.44671176-53.22215387 0L68.71549031 93.69255285c-1.55620288-0.62248185-3.11240747-0.77810141-4.35736939-0.77810143zM312.88378785 415.04853425l95.23964156 14.00582923-69.09542688 66.91674219 16.02889433 94.92840237-84.96869987-44.97427558-85.27994084 44.50741335 16.49575485-94.61715976-68.62856636-67.38360268 95.08402198-13.53896873 42.79559086-86.21366357zM614.63160692 422.67393069c-9.64845981 0-18.67443957-6.06919358-22.0980862-15.56203383-4.20174808-12.13838546 2.17868469-25.52173461 14.31707015-29.72348266l262.68711749-92.12723585c12.13838546-4.20174808 25.52173461 2.17868469 29.72348266 14.31707015 4.20174808 12.13838546-2.17868469 25.52173461-14.31707016 29.72348442l-262.68711749 92.1272341c-2.33430431 0.77810141-4.97985125 1.24496193-7.62539645 1.24496367zM621.01204144 584.51907352c-9.64845981 0-18.67443957-6.06919358-22.09808623-15.5620321-4.20174808-12.13838546 2.17868469-25.52173461 14.31707017-29.72348437l262.68711749-92.12723411c12.13838546-4.20174808 25.52173461 2.17868469 29.72348267 14.31707015 4.20174808 12.13838546-2.17868469 25.52173461-14.31707018 29.72348266l-262.68711747 92.12723583c-2.33430431 0.93372276-4.97985125 1.24496193-7.62539645 1.24496194zM627.23685461 740.2950245c-9.64845981 0-18.67443957-6.06919358-22.09808622-15.56203384-4.20174808-12.13838546 2.17868469-25.52173461 14.31707017-29.72348265l262.68711748-92.12723583c12.13838546-4.20174808 25.52173461 2.17868469 29.72348266 14.31707188 4.20174808 12.13838546-2.17868469 25.52173461-14.31707015 29.72348266l-262.68711749 92.12723586c-2.48992563 0.77810141-5.13547083 1.24496193-7.62539645 1.24496192z" /></svg>