<?xml version="1.0" standalone="no"?><!DOCTYPE svg PUBLIC "-//W3C//DTD SVG 1.1//EN" "http://www.w3.org/Graphics/SVG/1.1/DTD/svg11.dtd"><svg class="icon" width="200px" height="200.00px" viewBox="0 0 1024 1024" version="1.1" xmlns="http://www.w3.org/2000/svg"><path fill="currentColor" d="M1005.976215 900.560576c-18.91375-94.534643-177.591419-147.421514-283.808585-149.26343l-66.394256-33.188601a17.054779 17.054779 0 0 0-19.681216 3.189244l-124.397562 124.380507-124.363452-124.380507a17.071834 17.071834 0 0 0-19.681215-3.189244l-64.927546 32.455245c-89.554647 1.620204-266.122779 54.353582-285.36057 150.525484l-17.054779 102.328677a17.054779 17.054779 0 1 0 33.632025 5.628077l16.952451-101.799978c14.053138-70.197472 166.232936-119.8951 249.35793-122.470372l80.021026 80.021025a17.037725 17.037725 0 1 0 24.115458-24.115458l-68.543159-68.543159 36.070859-18.026901 127.723243 127.740298a16.98656 16.98656 0 0 0 24.115459 0l127.757353-127.740298 36.070858 18.026901-68.543158 68.543159a17.037725 17.037725 0 1 0 24.115458 24.115458l79.372943-79.389998c94.568752 1.9613 235.407121 48.913108 249.903684 121.310646l17.05478 102.328677a17.054779 17.054779 0 1 0 33.632025-5.628077l-17.140054-102.857375"  /><path fill="currentColor" d="M358.218636 886.848533a17.054779 17.054779 0 0 0-17.05478 17.05478v102.328677a17.054779 17.054779 0 1 0 34.109559 0v-102.328677a17.054779 17.054779 0 0 0-17.054779-17.05478M255.889959 824.496259a17.054779 17.054779 0 0 0-17.05478 17.05478V1006.23199a17.054779 17.054779 0 1 0 34.109559 0v-164.680951a17.054779 17.054779 0 0 0-17.054779-17.05478M153.561282 844.211585a17.054779 17.054779 0 0 0-17.054779 17.054779V1006.23199a17.054779 17.054779 0 1 0 34.109559 0v-144.965626a17.054779 17.054779 0 0 0-17.05478-17.054779M460.547313 903.903313a17.054779 17.054779 0 0 0-17.05478 17.054779v85.273898a17.054779 17.054779 0 1 0 34.109559 0v-85.273898a17.054779 17.054779 0 0 0-17.054779-17.054779M562.87599 903.903313a17.054779 17.054779 0 0 0-17.05478 17.054779v85.273898a17.054779 17.054779 0 1 0 34.109559 0v-85.273898a17.054779 17.054779 0 0 0-17.054779-17.054779M869.86202 844.211585a17.054779 17.054779 0 0 0-17.054779 17.054779V1006.23199a17.054779 17.054779 0 1 0 34.109559 0v-144.965626a17.054779 17.054779 0 0 0-17.05478-17.054779M767.533344 886.848533h-102.328677a17.054779 17.054779 0 0 0-17.05478 17.05478v102.328677a17.054779 17.054779 0 1 0 34.109559 0v-85.273898h68.219118v85.273898a17.054779 17.054779 0 1 0 34.109559 0v-102.328677a17.054779 17.054779 0 0 0-17.054779-17.05478M243.559353 441.923446c12.449989 32.369971 53.569062 136.745222 83.414927 181.514018l2.694655 4.076092C351.567272 660.719212 388.217993 716.300738 511.711651 716.300738s160.144379-55.581526 182.042716-88.787182l2.694656-4.076092c29.845864-44.768796 70.964937-149.144047 83.414926-181.514018A51.266667 51.266667 0 0 0 818.697682 392.259928v-68.219118a51.266667 51.266667 0 0 0-34.109559-48.247971V238.766913c0-151.736373-99.463474-238.766913-272.876472-238.766913S238.835179 87.03054 238.835179 238.766913v37.281748c-19.459503 7.35061-34.109559 26.65662-34.109559 47.992149v68.219118c0 23.961965 16.560191 44.120715 38.833733 49.663518zM238.835179 324.04081c0-9.448348 9.328964-17.054779 17.05478-17.054779a17.054779 17.054779 0 0 0 17.054779-17.05478v-51.164338c0-76.422467 31.005589-204.657354 238.766913-204.657354s238.766913 128.234887 238.766913 204.657354v51.164338a17.054779 17.054779 0 0 0 17.05478 17.05478c9.414238 0 17.054779 7.657596 17.054779 17.054779v68.219118c0 9.397183-7.640541 17.054779-17.054779 17.05478-7.111843 0-13.473276 4.417188-15.980329 11.068552-0.494589 1.347328-50.857352 135.193237-83.483145 184.123399l-2.796984 4.229585C644.84126 639.741833 616.837312 682.191179 511.711651 682.191179s-133.129609-42.449346-153.561234-73.454935l-2.796984-4.229585c-32.625793-48.930162-82.988557-182.776072-83.5002-184.123399A17.054779 17.054779 0 0 0 255.889959 409.314708c-9.414238 0-17.054779-7.657596-17.05478-17.05478v-68.219118z"  /><path fill="currentColor" d="M443.492533 562.807723a17.054779 17.054779 0 0 0 17.05478 17.05478h102.328677a17.054779 17.054779 0 1 0 0-34.109559h-102.328677a17.054779 17.054779 0 0 0-17.05478 17.054779M392.328195 341.09559h17.054779a17.054779 17.054779 0 1 0 34.109559 0h17.05478a17.054779 17.054779 0 1 0 0-34.109559h-68.219118a17.054779 17.054779 0 1 0 0 34.109559M562.87599 341.09559h17.054779a17.054779 17.054779 0 1 0 34.109559 0h17.05478a17.054779 17.054779 0 1 0 0-34.109559h-68.219118a17.054779 17.054779 0 1 0 0 34.109559"  /></svg>