<?xml version="1.0" standalone="no"?><!DOCTYPE svg PUBLIC "-//W3C//DTD SVG 1.1//EN" "http://www.w3.org/Graphics/SVG/1.1/DTD/svg11.dtd"><svg class="icon" width="200px" height="200.00px" viewBox="0 0 1024 1024" version="1.1" xmlns="http://www.w3.org/2000/svg"><path fill="currentColor" d="M227.536 540.448h199.104c17.056 0 28.448-11.392 28.448-28.448s-11.392-28.448-28.448-28.448H227.536c-17.056 0-28.448 11.392-28.448 28.448s11.392 28.448 28.448 28.448z m0 227.552H796.432c17.056 0 28.448-11.392 28.448-28.448s-11.392-28.448-28.448-28.448H227.536c-17.056 0-28.448 11.392-28.448 28.448s11.392 28.448 28.448 28.448z m355.552-278.752a23.392 23.392 0 0 0-34.144 2.848c-11.392 11.392-11.392 25.6-2.848 34.144l56.896 56.896s0 2.848 2.848 2.848 2.848 0 2.848 2.848c5.696 5.696 14.208 5.696 22.752 2.848 5.696 0 8.544-2.848 14.208-8.544l167.808-167.808c11.392-11.392 11.392-31.296 0-42.656s-31.296-11.392-42.656 0l-150.752 150.752-36.992-34.144zM312.88 256c17.056 0 28.448-11.392 28.448-28.448V28.448C341.328 11.392 329.936 0 312.88 0S284.432 11.392 284.432 28.448v199.104c0 17.056 11.392 28.448 28.448 28.448z m568.896-142.208H796.432v56.896h85.344c31.296 0 56.896 25.6 56.896 56.896v682.656c0 31.296-25.6 56.896-56.896 56.896H142.224c-31.296 0-56.896-25.6-56.896-56.896V227.584c0-31.296 25.6-56.896 56.896-56.896h85.344V113.792H142.224A114.112 114.112 0 0 0 28.432 227.584v682.656c0 62.592 51.2 113.792 113.792 113.792h739.552c62.592 0 113.792-51.2 113.792-113.792V227.584c0-62.592-51.2-113.792-113.792-113.792zM711.088 256c17.056 0 28.448-11.392 28.448-28.448V28.448c0-17.056-11.392-28.448-28.448-28.448s-28.448 11.392-28.448 28.448v199.104c0 17.056 11.392 28.448 28.448 28.448z m-85.312-142.208h-227.552v56.896h227.552V113.792z" /></svg>