<?xml version="1.0" standalone="no"?><!DOCTYPE svg PUBLIC "-//W3C//DTD SVG 1.1//EN" "http://www.w3.org/Graphics/SVG/1.1/DTD/svg11.dtd"><svg class="icon" width="200px" height="200.00px" viewBox="0 0 1024 1024" version="1.1" xmlns="http://www.w3.org/2000/svg"><path fill="currentColor" d="M465.193373 605.312052v325.646182h93.041766v-325.646182H465.193373z m0-93.041766h93.041766a93.041766 93.041766 0 0 1 93.041766 93.041766v325.646182a93.041766 93.041766 0 0 1-93.041766 93.041766H465.193373a93.041766 93.041766 0 0 1-93.041766-93.041766v-325.646182a93.041766 93.041766 0 0 1 93.041766-93.041766zM139.547192 744.874702v186.083532h93.041766v-186.083532H139.547192z m0-93.041766h93.041766a93.041766 93.041766 0 0 1 93.041766 93.041766v186.083532a93.041766 93.041766 0 0 1-93.041766 93.041766H139.547192a93.041766 93.041766 0 0 1-93.041767-93.041766v-186.083532a93.041766 93.041766 0 0 1 93.041767-93.041766zM883.881321 884.437351a46.520883 46.520883 0 0 1 93.041766 0v46.520883a93.041766 93.041766 0 0 1-93.041766 93.041766h-93.041767a93.041766 93.041766 0 0 1-93.041766-93.041766V465.749403a93.041766 93.041766 0 0 1 93.041766-93.041766h93.041767a93.041766 93.041766 0 0 1 93.041766 93.041766v232.604416a46.520883 46.520883 0 0 1-93.041766 0v-232.604416h-93.041767v465.208831h93.041767v-46.520883zM122.474027 556.883813a46.520883 46.520883 0 0 1-43.078337-82.481525l801.554815-418.548385a46.520883 46.520883 0 1 1 43.031817 82.481525L122.474027 556.883813z"  /><path fill="currentColor" d="M776.464602 91.302816A46.520883 46.520883 0 1 1 805.261028 2.866617l139.562649 45.264819a46.520883 46.520883 0 0 1 30.378137 57.034603l-36.100205 126.44376a46.520883 46.520883 0 1 1-89.459658-25.539965l23.72565-83.272381-96.856479-31.448117z"  /></svg>